<?xml version="1.0" encoding="utf-8"?>
<!-- Generator: Adobe Illustrator 25.4.1, SVG Export Plug-In . SVG Version: 6.00 Build 0)  -->
<svg version="1.1" id="Layer_1" xmlns="http://www.w3.org/2000/svg" xmlns:xlink="http://www.w3.org/1999/xlink" x="0px" y="0px"
	 viewBox="0 0 595.28 841.89" style="enable-background:new 0 0 595.28 841.89;" xml:space="preserve">
<style type="text/css">
	.st0{fill-rule:evenodd;clip-rule:evenodd;fill:#E6E7E8;}
</style>
<path class="st0" d="M553.15,476.21c0.74-3.04,1.39-5.83,1.84-7.96c0.81-3.78,1.57-9.74,2.16-15.19
	c7.1-55.87-3.9-113.46-35.27-160.53c-45.03-78.05-129.69-130.64-226.72-130.64C150.92,161.89,34,278.09,34,421.43
	c0,143.34,116.92,259.53,261.16,259.53c28.11,0,55.18-4.44,80.56-12.6c-20.85,5.55-42.8,8.53-65.48,8.53
	c-88.31,0-165.73-45-209.13-112.58c33.25,19.14,70.74,31.19,116.87,37.99c4.75,19.85,14.24,37.35,28.72,51
	c2.45,2.32,5.01,4.47,7.67,6.48c-15.09-15.1-24.09-34.49-27.32-56.22c6.54,0.85,13.25,1.6,20.15,2.26
	c19.98,1.91,39.3,2.61,57.87,2.16c1.88,11.54,6.46,22,13.97,30.65c23.77,27.36,69.68,28.33,113.27,5.91
	c-36.65,16.88-74.46,14.81-94.62-8.39c-7.1-8.17-11.3-18.14-12.81-29.12c41.4-3,78.62-12.18,110.48-27.39
	c-34.01,8.66-70.68,13.7-110.98,13.23c1.28-21.46,11.36-45.17,28.97-66.17c29.7,18.39,57.84,34.34,83.76,48.43
	c-23.75-17.47-49.24-36.26-75.88-57.12c2.96-3.02,6.07-5.97,9.35-8.82c13.46-11.7,28.11-20.47,42.75-26.22
	c11.15,29.86,20.18,58.79,28.55,88.26c-3.13-29.96-8.49-60.45-16.66-92.28c30.21-8.52,58.99-3.79,75.68,15.42
	c19.37,22.29,17.15,58-2.44,90.86c-0.99,1.45-1.99,2.89-3.02,4.32c0.46-0.54,0.92-1.09,1.37-1.63c-0.28,0.44-0.54,0.88-0.82,1.32
	c0.43-0.61,0.84-1.23,1.26-1.84c29.17-34.77,48.03-73.4,55.64-110C552.97,477.01,553.06,476.61,553.15,476.21z M158.61,323.47
	c3.49-4.02,7.11-7.97,10.9-11.82c33.07-33.71,72.67-56.34,113.81-67.68c6.72,9.01,13.36,18.33,19.97,28.04
	c-39.94,20.11-77.42,52.37-106.59,94.96C183.5,352.49,170.8,337.97,158.61,323.47z M422.89,249.74
	c-28.52-4.11-58.78-0.79-88.52,9.23c-4.21-7.71-8.38-15.1-12.57-22.27C356.44,233.11,391.09,237.41,422.89,249.74z M323.6,303.21
	c8.94,14.36,17.93,29.59,27.11,45.93c1.55,2.75,3.06,5.48,4.56,8.2c-24.44,13.33-48.31,31.59-69.8,54.37
	c-7.43,7.87-14.29,16-20.59,24.3c-15.38-14.38-30.9-29.61-46.47-45.82C249.03,350.34,285.78,320.83,323.6,303.21z M355.94,300.31
	c-1.37-2.72-2.72-5.38-4.06-8.02c46.33-14.17,92.36-10.11,128.88,15.02c18.15,12.48,32.54,30.13,42.95,50.97
	c-35.06-32.45-90.48-34.88-145.8-11.82C371.19,331.49,363.89,316.13,355.94,300.31z M256.55,210.31
	c-34.85,12.26-67.69,32.58-95.34,60.78c-8.49,8.65-16.22,17.77-23.2,27.26c-4.12-5.15-8.18-10.29-12.16-15.42
	C159.57,246.77,204.97,220.93,256.55,210.31z M64.24,439.01c0-43.78,12.17-84.36,33.4-119.03c5.53,5.74,11.17,11.48,16.9,17.22
	C89.9,387.91,83.55,444.9,95.67,497.77c-1.88-47.9,11.06-97.51,38.48-141.3c10.86,10.46,22.03,20.9,33.49,31.26
	c3.58,3.24,7.16,6.42,10.73,9.58c-27.16,51.37-37.38,106.29-31.29,155.16c-29.32-14.23-54.63-31.45-74.07-50.34
	C67.31,482.02,64.24,460.86,64.24,439.01z M152.77,555.17c3.03-44.93,18.79-93.56,47.49-138.99c16.98,14.3,33.82,27.7,50.44,40.28
	c-25.48,40.48-37.95,83.56-36.14,121.22C192.69,571.68,171.93,564.06,152.77,555.17z M304.15,592.19
	c-5.95-0.34-11.98-0.79-18.09-1.37c-20.67-1.97-40.88-5.46-60.31-10.22c1.03-35.5,15.44-74.97,42.08-111.39
	c23.44,17.13,46.37,32.66,68.53,46.82C316.36,540.42,305.1,567.76,304.15,592.19z M357.59,494.24c-4.23,3.68-8.23,7.49-12,11.41
	c-20.71-16.59-42.04-34.5-63.71-54.03c1.88-2.17,3.81-4.32,5.78-6.46c23.42-25.31,53.06-45.22,83.62-57.59
	c13.69,26.88,25.02,52.17,34.79,76.65C389.5,470.88,372.9,480.94,357.59,494.24z M503.43,577.69
	c21.61-36.97,24.03-76.67,2.53-101.41c-18.83-21.68-51.58-26.79-86.06-16.82c-7.29-25.34-16.39-51.6-27.55-79.16
	c43.39-12.45,86.19-8.86,113.44,16.85C548.15,437.09,545.22,511.69,503.43,577.69z"/>
</svg>
