<?xml version="1.0" encoding="utf-8"?>
<!-- Generator: Adobe Illustrator 25.2.3, SVG Export Plug-In . SVG Version: 6.00 Build 0)  -->
<svg version="1.1" id="Layer_1" xmlns="http://www.w3.org/2000/svg" xmlns:xlink="http://www.w3.org/1999/xlink" x="0px" y="0px"
	 viewBox="0 0 595.28 135.89" style="enable-background:new 0 0 595.28 135.89;" xml:space="preserve">
<style type="text/css">
	.st0{fill:#FED401;}
	.st1{fill:#005194;}
	.st2{fill:#B71E78;}
	.st3{fill:#00865B;}
	.st4{fill:#EB6724;}
	.st5{fill:#D42027;}
</style>
<g>
	<path class="st0" d="M115.27,97.55c-18.98-1.81-35.78-10.93-42.01-21.44c0.32,1.97,2.57,6.28,3.6,9.11
		c0.75,2.08,1.84,3.77,2.35,5.29c7.86,5.56,16.88,8.47,29.27,9.65c12.78,1.22,24.02-0.34,32.88-4.58
		C133.59,97.58,125.02,98.48,115.27,97.55"/>
	<path class="st0" d="M100.48,59.33c-6.53-7.1-12.4-14.28-17.48-21.28c-0.68,0.9-1.46,1.95-2.26,3.14c-1.12,1.63-2.02,3.16-2.7,4.44
		c5,5.48,10.54,11.01,16.54,16.43c17.11,15.47,33.77,25.51,47.09,32.75C129.66,85.97,115.11,75.22,100.48,59.33"/>
	<path class="st0" d="M127.49,46.78c-4.88-9.72-8.71-16.16-14.34-23.71c-0.73,0.08-1.96,0.69-4.12,1.03
		c-1.62,0.25-3.26,0.09-4.58,0.61c8.21,8.62,14.83,17.63,22.11,30.6c8.29,14.75,12.44,26.51,15.93,38.81
		C141.02,79.96,136.7,65.12,127.49,46.78"/>
	<path class="st1" d="M119.5,112.59c-23.74,0-42.99-18.61-42.99-41.57c0-22.96,19.13-40.9,42.87-40.9
		c23.28,0,42.35,17.22,43.08,39.57c0.02-0.58,0.04-1.15,0.04-1.73c0-25.05-20.43-45.36-45.64-45.36s-45.64,20.3-45.64,45.36
		c0,25.05,20.44,45.35,45.64,45.35c4.91,0,9.64-0.78,14.08-2.2C127.3,112.06,123.46,112.59,119.5,112.59"/>
	<path class="st2" d="M94.91,48.76c16.27-16.59,41.58-17.84,56.53-2.81c9.13,9.19,12.76,23.04,9.64,34.92
		c4.23-14.14,1.64-30.17-9.1-40.97c-15.73-15.82-42.26-14.82-58.53,1.76C82.74,52.6,78.89,67.72,82,81.29
		C81.55,69.9,85.9,57.94,94.91,48.76"/>
	<path class="st3" d="M160.26,72.05c-0.13-9.98-3.95-19.21-10.97-24.04c-13.57-9.33-34.65-2.03-47.79,17.16
		c-6.8,9.94-9.98,20.92-9.59,30.5c-3.01-11.23-0.53-25.16,7.73-37.22c13.14-19.19,35.92-26.4,50.88-16.11
		c8.86,6.1,13.17,17.05,12.33,28.89c0,0-0.27,3.41-0.59,4.9c-0.31,1.42-1.09,4.48-1.4,5.38C160.56,82.41,160.26,72.05,160.26,72.05"
		/>
	<path class="st4" d="M115.17,66.25c-13.4,14.21-16.43,33.11-6.77,42.22c0.43,0.41,0.88,0.78,1.34,1.13
		c-8.5-8.5-5.95-24.79,5.82-37.5c10.81-11.69,29.21-16.79,38.12-8.4c7.85,7.4,6.8,21.62-1.81,33.63
		c11.93-13.95,14.29-31.61,5.06-40.31C147.26,47.91,128.56,52.04,115.17,66.25"/>
	<path class="st5" d="M127.68,80.73c-9.02,7.84-12.04,19.13-6.74,25.24c4.15,4.78,12.18,4.95,19.79,1.03
		c-6.4,2.95-13.01,2.59-16.53-1.46c-4.7-5.41-2.13-15.35,5.75-22.19c7.88-6.84,18.07-8,22.77-2.59c3.52,4.06,2.96,10.65-0.86,16.58
		c4.94-6.99,5.9-14.96,1.74-19.74C148.3,71.49,136.69,72.89,127.68,80.73"/>
	<path class="st5" d="M216.92,76.19c-3.39,2.1-6.26,2.75-10.53,2.75h-5.5l-3.27,15.38h-6.78l8.66-40.41h10.53
		c4.97,0,7.95,0.76,9.94,2.11c2.4,1.64,3.68,4.27,3.68,7.19C223.64,69.23,220.9,73.67,216.92,76.19 M210.13,59.4h-5.09l-2.98,14.04
		h5.26c3.22,0,4.97-0.7,6.26-2.05c1.76-1.81,2.81-4.39,2.81-6.84C216.39,61.22,214.58,59.4,210.13,59.4"/>
	<path class="st5" d="M240.26,73.36c-0.52-0.31-1.03-0.41-1.81-0.41c-1.81,0-3.82,1.4-6.09,4.59l-3.56,16.78h-5.63l3.72-17.45
		c0.77-3.56,0.72-5.52,0.21-7.33l5.27-2.17c0.57,1.34,0.77,3.3,0.41,5.11c2.38-2.99,5.27-4.9,7.79-4.9c0.93,0,1.39,0.1,2.17,0.41
		L240.26,73.36z"/>
	<path class="st5" d="M249.4,94.94c-5.78,0-9.08-3.36-9.08-9.34c0-10.06,6.14-18.01,14.81-18.01c5.99,0,9.24,3.46,9.24,9.19
		C264.37,86.32,259,94.94,249.4,94.94 M254.25,71.92c-5.16,0-7.85,8.26-7.85,14.19c0,3.15,1.5,4.54,4.03,4.54
		c5.06,0,7.79-7.74,7.79-14.09C258.22,73.05,256.57,71.92,254.25,71.92"/>
	<path class="st5" d="M297.27,60.81c-1.81-1.64-3.98-2.28-6.55-2.28c-3.57,0-6.84,1.93-9.24,5.03c-3.33,4.27-5.26,12.4-5.26,17.31
		c0,5.79,2.92,8.83,8.19,8.83c2.69,0,4.97-0.88,7.9-2.75l2.4,4.45c-3.74,2.45-7.72,3.63-12.11,3.63c-8.6,0-13.69-5.44-13.69-14.39
		c0-6.49,2.46-14.27,6.61-19.42c4.15-5.21,10.24-8.01,16.2-8.01c3.92,0,7.43,1.23,9.42,3.22L297.27,60.81z"/>
	<path class="st5" d="M315.53,73.36c-0.52-0.31-1.03-0.41-1.81-0.41c-1.81,0-3.82,1.4-6.09,4.59l-3.56,16.78h-5.63l3.72-17.45
		c0.77-3.56,0.72-5.52,0.21-7.33l5.27-2.17c0.57,1.34,0.77,3.3,0.41,5.11c2.38-2.99,5.27-4.9,7.79-4.9c0.93,0,1.39,0.1,2.17,0.41
		L315.53,73.36z"/>
	<path class="st5" d="M336.28,79.97c-2.17,2.12-5.73,3.3-11.1,3.3c-1.45,0-2.68-0.21-3.15-0.21c-0.1,0.51-0.31,1.91-0.31,2.73
		c0,3.25,1.91,4.8,4.75,4.8c2.74,0,4.95-0.93,7.38-2.84l1.76,3.51c-3.15,2.53-6.25,3.72-10.63,3.72c-5.58,0-9.29-3.35-9.29-9.55
		c0-5.21,2.27-10.84,5.83-14.3c2.58-2.48,5.47-3.56,8.83-3.56c5.06,0,8.26,2.32,8.26,6.97C338.6,76.66,337.78,78.52,336.28,79.97
		 M329.62,71.81c-2.94,0-5.52,2.32-6.66,7.23c0.31,0,1.39,0.15,2.27,0.15c3.15,0,5.31-0.46,6.56-1.7c0.67-0.67,1.08-1.5,1.08-2.58
		C332.87,73.16,331.99,71.81,329.62,71.81"/>
	<path class="st5" d="M362.96,85.23c-1.19,5.52-0.98,7.18-0.26,8.41l-4.85,1.13c-0.67-0.82-1.08-2.12-0.98-3.77
		c-2.01,2.48-4.7,3.82-7.69,3.82c-5.21,0-7.69-3.1-7.69-8.98c0-5.21,2.06-10.79,5.73-14.4c2.48-2.43,5.73-3.67,8.72-3.67
		c2.32,0,4.13,0.36,5.01,0.83c0-0.26,0.46-2.63,0.67-3.51l1.86-8.77l5.42,0.93L362.96,85.23z M355.74,72.38
		c-1.65,0-3.51,0.83-4.75,2.38c-2.12,2.58-3.56,7.64-3.56,11.2c0,2.84,1.03,4.34,3.15,4.34c2.17,0,5.01-1.91,6.61-4.65l2.63-12.24
		C358.73,72.69,357.65,72.38,355.74,72.38"/>
	<path class="st5" d="M374.68,94.32h-5.78l5.47-25.81l5.94-0.88L374.68,94.32z M378.96,64.43c-2.07,0-3.77-1.7-3.77-3.77
		c0-2.12,1.7-3.82,3.82-3.82c2.06,0,3.72,1.7,3.72,3.77C382.73,62.73,381.08,64.43,378.96,64.43"/>
	<path class="st5" d="M397.33,72.23h-5.01l-2.94,14.04c-0.21,0.98-0.31,1.86-0.31,2.53c0,1.65,0.77,2.17,2.42,2.17
		c0.83,0,1.81-0.16,2.63-0.52v3.51c-1.81,0.72-3.61,1.09-5.42,1.09c-3.51,0-5.47-1.76-5.47-4.39c0-0.93,0.1-2.27,0.36-3.56
		l3.15-14.87h-2.94l0.83-4.03h2.94c0.52-2.37,1.03-4.39,1.7-6.35l6.04-1.4c-0.72,2.22-1.6,5.27-2.12,7.74h6.25L397.33,72.23z"/>
	<path class="st5" d="M434.5,72.91c4.27,0.82,6.43,4.1,6.43,8.13c0,2.98-1.46,6.67-4.39,9.42c-3.04,2.81-6.26,3.86-12.99,3.86H410.7
		l8.66-40.41h12.63c7.66,0,11.35,3.33,11.35,8.77C443.33,67.06,440.58,71.22,434.5,72.91 M427.19,76.13h-5.97l-2.69,12.69h6.43
		c2.4,0,4.15-0.64,5.5-1.58c1.75-1.23,3.1-3.74,3.1-6.26C433.56,77.77,431.99,76.13,427.19,76.13 M430.29,59.58h-5.62l-2.28,11h5.85
		c2.52,0,4.04-0.47,5.21-1.41c1.46-1.17,2.52-2.92,2.52-5.15C435.96,61.1,434.56,59.58,430.29,59.58"/>
	<path class="st5" d="M467.12,75.53l-2.12,10.32c-0.67,3.15-0.36,4.49,0.93,5.88l-4.65,3.46c-1.4-1.14-1.96-2.58-1.96-4.29
		c-1.86,2.53-4.49,4.03-7.85,4.03c-4.08,0-6.81-2.74-6.81-8.31c0-5.78,2.17-11.36,5.52-14.82c2.79-2.84,6.2-4.23,10.38-4.23
		c2.99,0,6.04,0.62,8.1,1.96C468.21,70.99,467.49,73.67,467.12,75.53 M459.9,72.07c-2.32,0-3.97,0.52-5.99,2.89
		c-2.32,2.79-3.41,7.85-3.41,11.51c0,2.84,0.93,3.92,2.84,3.92c2.38,0,5.01-2.37,6.2-5.01l2.79-12.8
		C461.81,72.28,460.77,72.07,459.9,72.07"/>
	<path class="st5" d="M494.63,75.63l-3.97,18.69h-5.63l3.67-17.29c0.26-1.13,0.36-1.96,0.36-2.53c0-1.5-0.67-2.06-2.07-2.06
		c-1.86,0-4.44,1.29-7.17,4.85l-3.61,17.03h-5.57l3.82-18.07c0.62-3.04,0.67-4.8,0.1-6.71l5.27-2.17c0.51,1.19,0.83,3.1,0.46,4.9
		c2.48-2.99,5.78-4.64,9.39-4.64c3.25,0,5.21,2.01,5.21,5.16C494.89,73.67,494.84,74.76,494.63,75.63"/>
	<path class="st5" d="M510.01,65.36l-6.19,28.96h-5.68l6.14-28.85c0.72-3.31,0.83-5.89,0.41-7.48l5.88-1.96
		C511.05,57.46,510.99,60.77,510.01,65.36 M512.96,79.56l7.85,14.4l-6.35,0.72l-7.28-15.28l10.79-11.66l6.09,1.03L512.96,79.56z"/>
</g>
</svg>
