<?xml version="1.0" encoding="utf-8"?>
<!-- Generator: Adobe Illustrator 25.2.3, SVG Export Plug-In . SVG Version: 6.00 Build 0)  -->
<svg version="1.1" id="Layer_1" xmlns="http://www.w3.org/2000/svg" xmlns:xlink="http://www.w3.org/1999/xlink" x="0px" y="0px"
	 viewBox="0 0 595.28 135.89" style="enable-background:new 0 0 595.28 135.89;" xml:space="preserve">
<style type="text/css">
	.st0{fill-rule:evenodd;clip-rule:evenodd;fill:#D42027;}
	.st1{fill:#FED401;}
	.st2{fill:#005194;}
	.st3{fill:#B71E78;}
	.st4{fill:#00865B;}
	.st5{fill:#EB6724;}
	.st6{fill:#D42027;}
</style>
<g>
	<path class="st0" d="M522.08,94.39l6.19-28.97l0.31-1.24l0.39-1.2l0.47-1.14l0.55-1.08l0.63-1.02l0.71-0.96l0.79-0.89l0.87-0.83
		l0.9-0.73l0.93-0.63l0.97-0.54l1-0.45l1.03-0.34l1.06-0.25l1.09-0.15l1.12-0.05l0.81,0.03l0.78,0.1l0.76,0.17l0.73,0.24l0.7,0.32
		l0.67,0.38l0.63,0.45l0.61,0.53l0.73,0.81l0.6,0.91l0.46,0.99l0.32,1.06l0.17,1.13l0.04,1.19l-0.1,1.25l-0.22,1.29l-6.33,29.61
		h-6.2l6.09-28.5l0.12-0.67l0.08-0.62l0.04-0.58l0-0.53L542.55,63l-0.08-0.45l-0.11-0.4l-0.14-0.37l-0.19-0.36l-0.2-0.28l-0.23-0.23
		l-0.26-0.19l-0.3-0.15l-0.35-0.11l-0.41-0.07l-0.47-0.03l-0.46,0.02l-0.45,0.07l-0.44,0.12l-0.43,0.16l-0.43,0.22l-0.43,0.27
		l-0.42,0.32l-0.42,0.37l-0.37,0.39l-0.35,0.42l-0.33,0.45l-0.31,0.49l-0.29,0.52l-0.26,0.55l-0.24,0.59l-0.2,0.59l-6.08,28.47
		H522.08z M504.36,94.52l-1.12-0.13l-1.04-0.19l-0.97-0.25l-0.89-0.31l-0.82-0.37l-1.45-0.86l2.66-5.68l1.64,0.56l0.8,0.24l0.77,0.2
		l0.75,0.17l0.72,0.13l0.7,0.09l0.67,0.05l0.65,0.02l0.76-0.03l0.71-0.08l0.68-0.14l0.64-0.19l0.61-0.24l0.58-0.3l0.55-0.35
		l0.53-0.41l0.5-0.47l0.47-0.53l0.45-0.59l0.42-0.65l0.39-0.72l0.37-0.78l0.34-0.84l0.3-0.89l1.11-4.77l0.19-0.88l0.16-0.8
		l0.12-0.73l0.08-0.66l0.04-0.59l0.01-0.51l-0.02-0.43l-0.05-0.33l-0.13-0.45l-0.17-0.35l-0.22-0.28l-0.27-0.23l-0.35-0.19
		l-0.45-0.15l-0.48-0.08l-1.24,5.83l-7.06,3.58l5.32-24.9h6.29l-1.88,8.78l0.19,0.03l1.11,0.3l1.02,0.4l0.92,0.5l0.82,0.6l0.7,0.7
		l0.58,0.8l0.45,0.89l0.29,0.85l0.2,0.93l0.12,1l0.04,1.08l-0.04,1.17l-0.12,1.25l-0.19,1.33l-0.26,1.42l-1.06,4.97l-0.3,1.29
		l-0.38,1.25l-0.45,1.21l-0.52,1.16l-0.59,1.11l-0.66,1.05l-0.74,1l-0.8,0.95l-0.52,0.55l-0.53,0.51l-0.55,0.48l-0.57,0.44
		l-0.59,0.41l-0.6,0.37l-0.62,0.34l-0.63,0.3l-0.65,0.27l-0.66,0.23l-0.68,0.2l-0.69,0.16l-0.71,0.12l-0.72,0.09l-0.74,0.05
		l-0.75,0.02l-1.27-0.03L504.36,94.52z M481.41,76.37l-0.57,2.67l-0.26,1.29l-0.19,1.19l-0.12,1.1l-0.05,1.01l0.01,0.91l0.07,0.81
		l0.13,0.71l0.18,0.61l0.23,0.52l0.27,0.42l0.31,0.34l0.36,0.28l0.41,0.22l0.48,0.16l0.56,0.1l0.66,0.04l0.6-0.02l0.58-0.06
		l0.56-0.09l0.54-0.13l0.51-0.16l0.49-0.2l0.47-0.23l0.44-0.26l0.6-0.43l0.57-0.52l0.55-0.62l0.53-0.72l0.5-0.81l0.48-0.92
		l0.46-1.02l0.43-1.12l0.21-0.6l0.13-0.74l0.08-0.75l0.03-0.71L492.62,78l-0.08-0.64l-0.14-0.61l-0.19-0.57l-0.24-0.54l-0.3-0.51
		l-0.33-0.43l-0.36-0.35l-0.38-0.28l-0.42-0.22l-0.46-0.16l-0.52-0.1l-0.58-0.04l-0.76,0.03l-0.76,0.09l-0.75,0.15l-0.74,0.21
		l-0.73,0.27l-0.72,0.34l-0.71,0.4L481.41,76.37z M477.76,63.89l0.32-1.3l0.41-1.24l0.48-1.15l0.56-1.06l0.64-0.98l0.73-0.88
		l0.81-0.79l0.88-0.68l0.64-0.41l0.65-0.35l0.67-0.3l0.69-0.25l0.71-0.19l0.73-0.14l0.74-0.08l0.74-0.03h14.26l-1.37,6.41h-12.66
		l-0.89,0.08l-0.75,0.22l-0.66,0.37l-0.6,0.53l-0.55,0.71l-0.49,0.9l-0.42,1.1l-0.35,1.32l-0.64,3.02l0.08-0.05l0.42-0.25l0.42-0.23
		l0.42-0.21l0.42-0.18l0.43-0.16l0.43-0.13l0.43-0.11l0.4-0.07l0.42-0.06l0.44-0.05l0.47-0.04l0.5-0.03l0.53-0.02l0.56-0.02l0.61,0
		l0.96,0.05l0.95,0.16l0.91,0.28l0.86,0.38l0.81,0.49l0.76,0.6l0.7,0.7l0.64,0.79l0.36,0.53l0.32,0.54l0.28,0.56l0.25,0.58l0.22,0.6
		l0.18,0.61l0.15,0.63l0.11,0.64l0.08,0.66l0.05,0.67l0.01,0.69l-0.02,0.7l-0.05,0.72l-0.09,0.73l-0.12,0.75l-0.16,0.81l-0.25,0.71
		l-0.3,1.24l-0.39,1.26l-0.46,1.21l-0.52,1.15l-0.6,1.11l-0.66,1.05l-0.73,1l-0.79,0.94l-0.53,0.55l-0.54,0.51l-0.55,0.48
		l-0.57,0.44l-0.59,0.41l-0.6,0.38l-0.62,0.34l-0.63,0.3l-0.65,0.27l-0.66,0.23l-0.68,0.2l-0.69,0.16l-0.71,0.13l-0.72,0.09
		l-0.73,0.05l-0.73,0.02h-0.43l-1.35-0.08l-1.29-0.26l-1.2-0.44l-1.09-0.62l-0.97-0.8l-0.85-0.96l-0.72-1.12l-0.59-1.26l-0.38-1.05
		l-0.29-1.05l-0.21-1.06l-0.13-1.07l-0.05-1.08l0.03-1.08l0.11-1.09l0.19-1.08L477.76,63.89z M471.09,83.54l-0.28,1.2l-0.31,1.13
		l-0.34,1.05l-0.37,0.97l-0.41,0.9l-0.44,0.83l-0.47,0.75l-0.51,0.67l-0.47,0.53l-0.5,0.49l-0.53,0.46l-0.56,0.42l-0.59,0.39
		l-0.62,0.35L464.03,94l-0.68,0.28l-0.71,0.25l-0.73,0.22l-0.76,0.18l-0.78,0.15l-0.81,0.12l-0.84,0.08l-0.86,0.05l-0.89,0.02
		l-1.17-0.03l-1.11-0.09l-1.05-0.14l-0.99-0.2l-0.93-0.26l-0.87-0.33l-0.81-0.39l-1.44-0.88l2.65-5.64l1.63,0.56l0.8,0.24l0.77,0.2
		l0.75,0.16l0.72,0.13l0.7,0.09l0.67,0.05l0.65,0.02l0.85-0.01l0.79-0.04l0.72-0.07l0.65-0.1l0.57-0.12l0.49-0.14l0.41-0.16
		l0.34-0.17l0.37-0.26l0.34-0.31l0.32-0.36l0.29-0.43l0.26-0.49l0.24-0.56l0.21-0.63l0.18-0.71l2.63-12.32l0.06-0.42l0.01-0.39
		l-0.04-0.4l-0.09-0.41l-0.14-0.42l-0.2-0.44l-0.26-0.45l-0.32-0.47l-0.3-0.37l-0.33-0.35l-0.34-0.33l-0.36-0.3l-0.38-0.28
		l-0.41-0.26l-0.43-0.23l-0.49-0.23l-0.66-0.33l-0.63-0.4l-0.57-0.45l-0.51-0.51l-0.44-0.56l-0.36-0.61l-0.29-0.65l-0.21-0.69
		l-0.14-0.73l-0.08-0.78l-0.03-0.83l0.03-0.88l0.07-0.93l0.12-0.99l0.17-1.05l0.37-1.84h6.04l-0.39,2l-0.11,0.76l-0.07,0.69
		l-0.02,0.61l0.02,0.54l0.06,0.45l0.09,0.37l0.12,0.29l0.06,0.1l0.1,0.14l0.15,0.17l0.21,0.2l0.26,0.22l0.31,0.24l0.36,0.26
		l0.42,0.28l0.6,0.4l0.58,0.43l0.55,0.44l0.52,0.46l0.49,0.47l0.46,0.49l0.42,0.5l0.4,0.52l0.46,0.7l0.39,0.72l0.32,0.73l0.26,0.75
		l0.18,0.76l0.11,0.77l0.04,0.78l-0.03,0.83L471.09,83.54z M433.06,54.06h4.93l-0.7,3.25l0.57,0.03l0.79,0.08l0.73,0.12l0.67,0.16
		l0.62,0.2l0.56,0.25l0.52,0.31l0.73,0.62l0.6,0.74l0.44,0.86l0.29,0.94l0.14,1.03l0,1.1l-0.13,1.17l-0.25,1.23l-0.18,0.72
		l0.11,0.03l0.99,0.38l0.92,0.48l0.84,0.58l0.75,0.67l0.67,0.76l0.57,0.85l0.48,0.93l0.38,1l0.29,1.04l0.2,1.09l0.11,1.13l0.02,1.18
		l-0.07,1.22l-0.15,1.26l-0.24,1.3l-0.15,0.65l-0.17,0.64l-0.19,0.63l-0.21,0.62l-0.23,0.61l-0.25,0.6l-0.27,0.59l-0.29,0.58
		l-0.31,0.57l-0.33,0.56l-0.35,0.55l-0.37,0.54l-0.39,0.54l-0.4,0.52l-0.42,0.51l-0.45,0.51l-0.54,0.57l-0.54,0.53l-0.55,0.5
		l-0.56,0.46l-0.57,0.43l-0.58,0.39l-0.59,0.36l-0.6,0.32l-0.61,0.28l-0.62,0.25l-0.63,0.21l-0.64,0.17l-0.65,0.13l-0.65,0.1
		l-0.66,0.06l-0.67,0.02l-1.41-0.06l-1.33-0.18l-1.24-0.31l-1.14-0.44l-1.05-0.58l-0.94-0.71l-0.83-0.84l-0.7-0.95l-0.32-0.53
		l-0.27-0.55l-0.24-0.57l-0.21-0.59l-0.18-0.61l-0.14-0.63l-0.11-0.65l-0.08-0.67l-0.05-0.69l-0.02-0.71l0.02-0.73l0.05-0.75
		l0.08-0.77l0.11-0.79l0.14-0.81l0.17-0.84l0.32-1.29l0.4-1.25l0.48-1.21l0.55-1.16l0.63-1.11l0.71-1.06l0.79-1.01l0.86-0.96
		l0.92-0.89l0.96-0.79l1-0.7l1.03-0.6l1.07-0.5l1.1-0.4l1.13-0.3l0.49-0.08l0.01-0.07l0.12-0.63l0.09-0.57l0.06-0.5l0.04-0.43
		l0.01-0.35l-0.01-0.27l-0.02-0.17l-0.06-0.22l-0.08-0.15l-0.09-0.12l-0.12-0.1l-0.17-0.09l-0.25-0.08l-0.33-0.05l-0.38-0.02
		l-0.38,0.04l-0.56,2.61h-4.83L433.06,54.06z M431.19,80.29l-0.16,0.84l-0.11,0.8l-0.06,0.76l-0.01,0.72l0.03,0.67l0.08,0.63
		l0.12,0.59l0.16,0.54l0.27,0.63l0.32,0.52l0.37,0.42l0.42,0.34l0.49,0.27l0.57,0.2l0.66,0.12l0.77,0.04l0.78-0.03l0.74-0.1
		l0.69-0.16l0.65-0.22l0.61-0.28l0.58-0.35l0.55-0.41l0.52-0.48l0.49-0.55l0.46-0.62l0.43-0.69l0.4-0.77l0.36-0.85l0.33-0.92l0.29-1
		l0.26-1.07l0.16-0.88l0.1-0.82l0.03-0.76l-0.03-0.7l-0.09-0.64l-0.14-0.58l-0.19-0.53l-0.24-0.48l-0.29-0.41l-0.33-0.35l-0.38-0.3
		l-0.44-0.25l-0.51-0.2l-0.59-0.15l-0.67-0.09l-0.74-0.03l-0.75,0.04l-0.71,0.11l-0.68,0.19l-0.65,0.26l-0.63,0.34l-0.61,0.42
		l-0.59,0.5l-0.57,0.58l-0.44,0.53l-0.4,0.57l-0.37,0.59l-0.33,0.62l-0.29,0.66l-0.26,0.69l-0.22,0.72L431.19,80.29z M397.17,62.92
		l1.02,0.34l0.91,0.5l0.78,0.65l0.64,0.8l0.48,0.92l0.32,1.01l0.08,0.43l0.06,0.42l0.04,0.45l0.03,0.47l0.01,0.5l0,0.52l-0.02,0.55
		l-0.03,0.58l-0.05,0.61l-0.07,0.63l-0.08,0.66l-0.09,0.69l-0.11,0.72l-0.13,0.74l-0.14,0.77l-0.16,0.8l-0.94,4.39l-0.3,1.28
		l-0.38,1.25l-0.45,1.2l-0.52,1.16l-0.6,1.11l-0.67,1.06l-0.74,1.01l-0.81,0.95l-0.52,0.55l-0.54,0.51l-0.55,0.48l-0.57,0.44
		l-0.59,0.41l-0.6,0.37l-0.62,0.34l-0.63,0.3l-0.65,0.27l-0.66,0.23l-0.68,0.2l-0.69,0.16l-0.7,0.12l-0.72,0.09l-0.73,0.05
		l-0.73,0.02h-0.43l-1.35-0.08l-1.29-0.26l-1.2-0.44l-1.09-0.62l-0.98-0.8l-0.85-0.97l-0.72-1.12l-0.59-1.26l-0.38-1.04l-0.29-1.05
		l-0.21-1.05l-0.13-1.07l-0.05-1.07l0.03-1.08l0.11-1.09l0.19-1.08L378.72,67h6.32l-2.45,11.46l-0.25,1.29l-0.18,1.19l-0.12,1.1
		l-0.05,1l0.01,0.91l0.07,0.81l0.13,0.71l0.18,0.61l0.23,0.52l0.27,0.42l0.31,0.34l0.35,0.28l0.41,0.22l0.48,0.16l0.56,0.1
		l0.65,0.04l0.74-0.03l0.71-0.08l0.68-0.14l0.64-0.19l0.61-0.24l0.58-0.3l0.55-0.35l0.52-0.41l0.5-0.47l0.47-0.53l0.45-0.59
		l0.42-0.65l0.39-0.71l0.37-0.78l0.34-0.84l0.3-0.89l0.98-4.17l0.44-2.05l0.16-0.77l0.13-0.71l0.1-0.65l0.07-0.59l0.04-0.53
		l0.01-0.47l-0.01-0.4l-0.03-0.32l-0.09-0.41l-0.13-0.31l-0.15-0.23l-0.18-0.18l-0.21-0.14l-0.28-0.11l-0.07-0.02l-1.36,6.38
		l-7.12,3.65l5.32-24.91h6.34l-1.85,8.66l0.04,0L397.17,62.92z M349.12,94.39l6.19-28.97l0.31-1.24l0.39-1.2l0.47-1.14l0.55-1.08
		l0.63-1.02l0.71-0.96l0.79-0.89l0.87-0.83l0.9-0.73l0.93-0.63l0.97-0.54l1-0.45l1.03-0.34l1.06-0.25l1.09-0.15l1.12-0.05l0.81,0.03
		l0.78,0.1l0.76,0.17l0.73,0.24l0.7,0.32l0.67,0.38l0.63,0.45l0.61,0.53l0.73,0.81l0.6,0.91l0.46,0.99l0.32,1.06l0.17,1.13
		l0.04,1.19l-0.09,1.25l-0.22,1.29l-6.33,29.61h-6.2l6.09-28.5l0.13-0.67l0.08-0.62l0.04-0.58l0-0.53L369.59,63l-0.08-0.45
		l-0.11-0.4l-0.14-0.37l-0.19-0.36l-0.2-0.28l-0.23-0.23l-0.26-0.19l-0.3-0.15l-0.35-0.11l-0.41-0.07l-0.47-0.03l-0.46,0.02
		l-0.45,0.07l-0.44,0.12l-0.43,0.16l-0.43,0.22l-0.43,0.27l-0.42,0.32l-0.42,0.37l-0.37,0.39l-0.35,0.42l-0.33,0.45L362,63.67
		l-0.29,0.52l-0.26,0.55l-0.24,0.59l-0.2,0.59l-6.08,28.47H349.12z M332.47,73.56l1.05,1.2l0.21,0.21l0.21,0.19l0.22,0.17l0.23,0.16
		l0.23,0.14l0.24,0.12l0.25,0.11l0.26,0.09l0.28,0.08l0.28,0.07l0.29,0.06l0.29,0.05l0.29,0.03l0.3,0.02l0.3,0.01l0.7-0.03
		l0.68-0.09l0.66-0.14l0.64-0.2l0.63-0.26l0.62-0.32l0.6-0.38l0.59-0.44l0.59-0.52l0.53-0.56l0.48-0.6l0.42-0.64l0.37-0.68
		l0.31-0.72l0.26-0.77l0.21-0.82l0.2-1.13L346,66.9l0.03-0.96l-0.05-0.88l-0.13-0.79l-0.2-0.71l-0.27-0.63l-0.35-0.56l-0.34-0.42
		l-0.37-0.36l-0.41-0.3l-0.45-0.25l-0.49-0.19l-0.54-0.14l-0.6-0.09l-0.65-0.03l-0.65,0.04l-0.63,0.12l-0.62,0.21l-0.61,0.29
		l-0.61,0.38l-0.61,0.48l-0.61,0.57l-0.6,0.67l-0.52,0.67l-0.47,0.7l-0.43,0.72l-0.39,0.75l-0.34,0.78l-0.3,0.81l-0.26,0.84
		l-0.21,0.89L332.47,73.56z M343.23,86.46l0.24,6l-1.43,0.68l-0.94,0.37l-0.98,0.31l-1.02,0.25l-1.06,0.2l-1.1,0.14l-1.13,0.08
		l-1.18,0.03l-1.36-0.06l-1.28-0.17l-1.2-0.29l-1.11-0.42l-1.02-0.54l-0.92-0.67l-0.82-0.79l-0.69-0.9l-0.34-0.54l-0.3-0.54
		l-0.27-0.55l-0.24-0.57l-0.21-0.58l-0.17-0.6l-0.14-0.61l-0.11-0.62l-0.08-0.63l-0.05-0.64l-0.01-0.65l0.02-0.67l0.05-0.68
		l0.08-0.69l0.11-0.7l0.14-0.7l2.95-13.82l0.34-1.31l0.44-1.28l0.54-1.23l0.64-1.17l0.74-1.12l0.84-1.06l0.93-1l1.03-0.94l1.05-0.83
		l1.07-0.73l1.09-0.62l1.12-0.51l1.14-0.39l1.16-0.28l1.17-0.17l1.19-0.06l1.09,0.05l1.05,0.15l1,0.25l0.96,0.35l0.91,0.45
		l0.86,0.55l0.8,0.65l0.74,0.74l0.44,0.53l0.39,0.55l0.35,0.58l0.31,0.6l0.27,0.63l0.23,0.65l0.19,0.68l0.14,0.7l0.1,0.73l0.06,0.75
		l0.02,0.77l-0.02,0.79l-0.06,0.81l-0.1,0.83l-0.13,0.85l-0.17,0.88l-0.18,0.79l-0.2,0.76l-0.22,0.75l-0.24,0.73l-0.26,0.71
		l-0.28,0.68l-0.29,0.66l-0.31,0.65l-0.33,0.62l-0.35,0.61l-0.37,0.58l-0.39,0.56l-0.41,0.54l-0.43,0.52l-0.45,0.5l-0.47,0.48
		l-0.5,0.46l-0.51,0.43l-0.53,0.4l-0.54,0.37l-0.55,0.35l-0.57,0.31l-0.58,0.29L342,81.71l-0.61,0.23l-0.62,0.19l-0.63,0.17
		l-0.64,0.13l-0.66,0.11l-0.67,0.07l-0.68,0.04l-0.69,0.01l-0.97-0.03l-0.9-0.08l-0.84-0.14l-0.78-0.2l-0.72-0.27l-0.66-0.34
		l-0.59-0.41l-0.42-0.4l-0.2,0.94l-0.12,0.69l-0.05,0.64l0.01,0.6l0.08,0.56l0.13,0.54l0.19,0.51l0.25,0.49l0.31,0.46l0.36,0.42
		l0.4,0.36l0.43,0.3l0.47,0.25l0.52,0.2l0.57,0.14l0.63,0.09l0.69,0.03l0.64-0.02l0.69-0.05l0.74-0.09l0.79-0.13l0.83-0.17
		l0.87-0.21l0.92-0.25L343.23,86.46z M309.79,66.65h-5.77l0.6-2.41l0.39-1.2l0.47-1.14l0.55-1.08l0.63-1.02l0.71-0.96l0.79-0.89
		l0.87-0.83l0.9-0.72l0.93-0.63l0.97-0.53l1-0.44l1.03-0.34l1.07-0.24l1.09-0.15l1.12-0.05l0.81,0.03l0.79,0.1l0.76,0.17l0.74,0.24
		l0.7,0.31l0.67,0.38l0.64,0.44l0.62,0.52l0.74,0.81l0.62,0.9l0.47,0.99l0.33,1.06l0.18,1.13l0.04,1.19l-0.09,1.25l-0.22,1.29
		l-3.52,16.47l-0.17,0.75l-0.2,0.74l-0.22,0.72l-0.25,0.7l-0.27,0.68l-0.3,0.66l-0.32,0.64l-0.35,0.62l-0.37,0.6l-0.39,0.58
		l-0.42,0.57l-0.44,0.54l-0.47,0.53l-0.49,0.5l-0.51,0.49l-0.54,0.46l-0.53,0.42l-0.54,0.39l-0.55,0.36l-0.55,0.33l-0.57,0.31
		l-0.58,0.28l-0.59,0.26l-0.6,0.23l-0.6,0.2l-0.61,0.17l-0.62,0.15l-0.63,0.12l-0.64,0.09l-0.65,0.07l-0.66,0.04l-0.66,0.01
		l-1.16-0.03l-1.1-0.08l-1.05-0.14l-0.99-0.2l-0.93-0.26l-0.87-0.32l-0.82-0.38l-1.46-0.87l2.66-5.68l1.63,0.56l0.79,0.24l0.77,0.2
		l0.75,0.16l0.72,0.13l0.7,0.09l0.67,0.05l0.64,0.02l0.67-0.03l0.65-0.08l0.63-0.13l0.62-0.18l0.61-0.23l0.6-0.29l0.58-0.34
		l0.58-0.39l0.59-0.47l0.53-0.51l0.47-0.54l0.41-0.58l0.36-0.62l0.3-0.66l0.25-0.7l0.2-0.77l3.32-15.55l0.13-0.67l0.08-0.62
		l0.04-0.58l0-0.53l-0.04-0.49l-0.08-0.45l-0.11-0.4l-0.14-0.37l-0.19-0.36l-0.21-0.28l-0.23-0.23l-0.26-0.19l-0.3-0.15l-0.35-0.11
		l-0.42-0.07l-0.48-0.03l-0.46,0.02l-0.45,0.07l-0.44,0.12l-0.43,0.16L313.67,61l-0.43,0.27l-0.43,0.32l-0.42,0.37l-0.37,0.39
		l-0.35,0.42l-0.33,0.45l-0.31,0.49l-0.29,0.52l-0.26,0.55l-0.24,0.59L309.79,66.65z M286.34,67.1l0.9-0.34l0.89-0.25l0.88-0.15
		l0.86-0.05l0.96,0.04l0.9,0.11l0.86,0.19l0.81,0.28l0.76,0.36l0.7,0.44l0.64,0.53l0.58,0.61l0.54,0.73l0.43,0.79l0.33,0.85
		l0.22,0.9l0.11,0.95l0.01,0.99l-0.09,1.03l-0.18,1.06l-3.9,18.23h-5.86l3.45-16.15l0.12-0.66l0.08-0.61l0.04-0.57l0-0.53
		l-0.05-0.49l-0.08-0.45l-0.11-0.41L291,74.16l-0.19-0.36l-0.22-0.3l-0.24-0.24l-0.26-0.19l-0.3-0.15l-0.34-0.11l-0.4-0.07
		l-0.46-0.03l-0.62,0.03l-0.59,0.1L286.83,73l-0.54,0.22l-0.52,0.29l-0.5,0.36l-0.49,0.43l-0.47,0.5l-0.36,0.45l-0.33,0.47l-0.3,0.5
		l-0.27,0.52l-0.24,0.54l-0.21,0.56l-0.18,0.59l-0.15,0.63L279,94.39h-5.81l8.66-40.53h5.81l-3.02,14.12l0.79-0.45L286.34,67.1z
		 M255.8,94.52l-1.12-0.13l-1.04-0.19l-0.97-0.25l-0.89-0.31l-0.82-0.37l-1.45-0.86l2.66-5.68l1.64,0.56l0.8,0.24l0.77,0.2
		l0.75,0.17l0.72,0.13l0.7,0.09l0.67,0.05l0.65,0.02l0.76-0.03l0.71-0.08l0.68-0.14l0.64-0.19l0.61-0.24l0.58-0.3l0.55-0.35
		l0.52-0.41l0.5-0.47l0.47-0.53l0.45-0.59l0.42-0.65l0.39-0.72l0.37-0.78l0.34-0.84l0.3-0.89l1.11-4.77l0.19-0.88l0.16-0.8
		l0.12-0.73l0.08-0.66l0.04-0.59l0.01-0.51l-0.02-0.43l-0.05-0.33l-0.13-0.45l-0.17-0.35l-0.22-0.28l-0.27-0.23l-0.35-0.19
		l-0.45-0.15l-0.48-0.08l-1.24,5.83l-7.06,3.58l5.32-24.9h6.29l-1.88,8.78l0.19,0.03l1.11,0.3l1.02,0.4l0.92,0.5l0.82,0.6l0.7,0.7
		l0.58,0.8l0.45,0.89l0.29,0.85l0.2,0.93l0.12,1.01l0.04,1.08l-0.04,1.17l-0.12,1.25l-0.19,1.33l-0.26,1.42l-1.06,4.97l-0.3,1.29
		l-0.38,1.25l-0.45,1.21l-0.52,1.16l-0.59,1.11l-0.66,1.05l-0.74,1l-0.8,0.95l-0.52,0.55l-0.54,0.51l-0.55,0.48l-0.57,0.44
		l-0.58,0.41l-0.6,0.37l-0.62,0.34l-0.63,0.3l-0.65,0.27l-0.67,0.23l-0.68,0.2l-0.69,0.16l-0.71,0.12l-0.72,0.09l-0.74,0.05
		l-0.75,0.02L257,94.6L255.8,94.52z M234.34,64.76l0.21-1.29l0.05-1.05l-0.09-0.82l-0.2-0.59l-0.28-0.4l-0.38-0.28l-0.55-0.19
		l-0.72-0.07l-0.82,0.16l-0.78,0.31l-0.7,0.44l-0.62,0.58l-0.56,0.74l-0.49,0.91l-0.41,1.09l-0.34,1.29l-6.15,28.8h-5.81l6.69-31.33
		l0.25-1l0.33-0.97l0.41-0.92l0.48-0.87l0.55-0.82l0.63-0.76l0.7-0.71l0.77-0.65l0.75-0.54l0.77-0.47l0.8-0.39l0.83-0.32l0.85-0.25
		l0.87-0.18l0.89-0.11l0.92-0.04l1.13,0.06l1.05,0.17l0.96,0.3l0.87,0.43l0.76,0.57l0.64,0.7l0.22,0.36l0.64-0.55l0.91-0.62
		l0.97-0.51l1.02-0.4l1.07-0.28l1.11-0.17l1.16-0.06l0.85,0.04l0.82,0.11l0.78,0.18l0.74,0.26l0.7,0.34l0.65,0.41l0.61,0.48
		l0.56,0.56l0.49,0.63l0.4,0.68l0.31,0.72l0.22,0.76l0.12,0.8l0.03,0.82l-0.06,0.85l-0.14,0.86l-6.8,31.83h-5.78l6.24-29.22
		l0.21-1.28l0.05-1.06l-0.09-0.86l-0.21-0.65l-0.31-0.47l-0.41-0.36l-0.57-0.27l-0.7-0.15l-0.76,0.07l-0.71,0.21l-0.64,0.35
		l-0.58,0.51l-0.53,0.68l-0.47,0.87l-0.41,1.07l-0.33,1.28l-2.8,13.08h-5.71L234.34,64.76z M203.84,67.1l0.9-0.34l0.89-0.25
		l0.88-0.15l0.86-0.05l0.96,0.04l0.9,0.11l0.86,0.19l0.81,0.28l0.76,0.36l0.7,0.44l0.64,0.53l0.58,0.61l0.54,0.73l0.43,0.79
		l0.33,0.85l0.22,0.9l0.11,0.95l0.01,0.99l-0.09,1.03l-0.18,1.06l-3.89,18.23h-5.86l3.45-16.15l0.12-0.66l0.08-0.61l0.04-0.57
		l0-0.53l-0.04-0.49l-0.08-0.45l-0.11-0.41l-0.14-0.37l-0.19-0.36l-0.22-0.3l-0.24-0.24l-0.26-0.19l-0.3-0.15l-0.34-0.11l-0.4-0.07
		l-0.46-0.03l-0.62,0.03l-0.59,0.1L204.32,73l-0.54,0.22l-0.52,0.29l-0.5,0.36l-0.49,0.43l-0.47,0.5l-0.36,0.45l-0.33,0.48l-0.3,0.5
		l-0.27,0.52l-0.24,0.54l-0.21,0.56l-0.18,0.59l-0.15,0.63l-3.27,15.33h-5.81l8.66-40.53h5.81l-3.02,14.12l0.79-0.45L203.84,67.1z
		 M185.29,90.78l-0.57,0.55l-0.59,0.52l-0.62,0.48l-0.64,0.44l-0.66,0.4l-0.69,0.37l-0.71,0.32l-0.74,0.29l-0.76,0.25l-0.78,0.21
		l-0.8,0.17l-0.83,0.13l-0.84,0.09l-0.87,0.06l-0.89,0.02l-1.18-0.03l-1.12-0.08l-1.06-0.14l-0.99-0.2l-0.93-0.26l-0.87-0.32
		l-0.81-0.38l-1.43-0.87l2.65-5.64l1.63,0.56l0.79,0.24l0.77,0.2l0.75,0.16l0.72,0.13l0.7,0.09l0.67,0.05l0.64,0.02l1.66-0.08
		l1.44-0.24l1.23-0.39l1.02-0.52l0.83-0.66l0.66-0.79l0.5-0.95l0.35-1.15l0.23-1.39l0.06-1.18l-0.09-0.93l-0.22-0.67l-0.31-0.46
		l-0.41-0.32l-0.59-0.21l-0.86-0.08h-3.44l1.3-6.07h4.77l0.15-0.01l0.14-0.03l0.17-0.07l0.19-0.11l0.22-0.15l0.24-0.2l0.26-0.25
		l0.27-0.3l0.25-0.3l0.22-0.3l0.19-0.29l0.17-0.28l0.14-0.27l0.11-0.27l0.09-0.26l0.06-0.24l0.04-0.28l-0.01-0.23l-0.04-0.2
		l-0.08-0.19l-0.13-0.2l-0.19-0.21l-0.26-0.22l-0.33-0.22l-0.21-0.11l-0.33-0.15l-0.43-0.18l-0.53-0.21l-0.62-0.23l-0.72-0.26
		l-0.81-0.28l-0.92-0.32l-0.71-0.28l-0.69-0.36l-0.64-0.43l-0.58-0.5l-0.53-0.56l-0.47-0.63l-0.41-0.69l-0.34-0.74l-0.28-0.77
		l-0.22-0.8l-0.15-0.82l-0.09-0.85l-0.02-0.86l0.04-0.89l0.11-0.9L176,54h6.12l-0.31,1.85l-0.04,0.62l0.03,0.55l0.1,0.48l0.16,0.42
		l0.22,0.37l0.28,0.34l0.33,0.28l0.13,0.06l0.29,0.13l0.41,0.17l0.52,0.22l0.63,0.26l0.74,0.3l0.86,0.34l0.9,0.38l0.83,0.39
		l0.76,0.41l0.69,0.43l0.62,0.45l0.55,0.47l0.47,0.5l0.4,0.53l0.32,0.57l0.25,0.62l0.17,0.66l0.1,0.7l0.03,0.74l-0.03,0.77
		l-0.1,0.81l-0.16,0.89l-0.25,0.68l-0.25,0.61l-0.27,0.59l-0.29,0.58l-0.32,0.56l-0.34,0.54l-0.37,0.53l-0.39,0.51l-0.41,0.48
		l-0.41,0.44l-0.42,0.4l-0.43,0.36l-0.37,0.27l0.09,0.08l0.38,0.43l0.33,0.46l0.28,0.5l0.22,0.52l0.18,0.55l0.12,0.56l0.08,0.57
		l0.05,0.58l0.01,0.6l-0.02,0.62l-0.06,0.63l-0.09,0.65l-0.13,0.67l-0.22,0.87l-0.28,0.86l-0.34,0.84l-0.39,0.83l-0.45,0.81
		l-0.51,0.79l-0.57,0.78l-0.62,0.76L185.29,90.78z"/>
	<g>
		<path class="st1" d="M90.23,97.55c-18.98-1.81-35.78-10.93-42.01-21.44c0.32,1.97,2.57,6.28,3.6,9.11
			c0.75,2.08,1.84,3.77,2.35,5.29c7.86,5.56,16.88,8.47,29.27,9.65c12.78,1.22,24.02-0.34,32.88-4.58
			C108.54,97.58,99.97,98.48,90.23,97.55"/>
		<path class="st1" d="M75.43,59.33c-6.53-7.1-12.4-14.28-17.48-21.28c-0.68,0.9-1.46,1.95-2.26,3.14c-1.12,1.63-2.02,3.16-2.7,4.44
			c5,5.48,10.54,11.01,16.54,16.43c17.11,15.47,33.77,25.51,47.09,32.75C104.62,85.97,90.06,75.22,75.43,59.33"/>
		<path class="st1" d="M102.44,46.78c-4.88-9.72-8.71-16.16-14.34-23.71c-0.73,0.08-1.96,0.69-4.12,1.03
			c-1.62,0.25-3.26,0.09-4.58,0.61c8.21,8.62,14.83,17.63,22.11,30.6c8.29,14.75,12.44,26.51,15.93,38.81
			C115.98,79.96,111.65,65.12,102.44,46.78"/>
		<path class="st2" d="M94.45,112.59c-23.74,0-42.99-18.61-42.99-41.57c0-22.96,19.13-40.9,42.87-40.9
			c23.28,0,42.35,17.22,43.08,39.57c0.02-0.58,0.04-1.15,0.04-1.73c0-25.05-20.43-45.36-45.64-45.36s-45.64,20.3-45.64,45.36
			c0,25.05,20.44,45.35,45.64,45.35c4.91,0,9.64-0.78,14.08-2.2C102.25,112.06,98.41,112.59,94.45,112.59"/>
		<path class="st3" d="M69.86,48.76c16.27-16.59,41.58-17.84,56.53-2.81c9.13,9.19,12.76,23.04,9.64,34.92
			c4.23-14.14,1.64-30.17-9.1-40.97c-15.73-15.82-42.26-14.82-58.53,1.76C57.69,52.6,53.84,67.72,56.95,81.29
			C56.51,69.9,60.85,57.94,69.86,48.76"/>
		<path class="st4" d="M135.22,72.05c-0.13-9.98-3.95-19.21-10.97-24.04c-13.57-9.33-34.65-2.03-47.79,17.16
			c-6.8,9.94-9.98,20.92-9.59,30.5c-3.01-11.23-0.53-25.16,7.73-37.22c13.14-19.19,35.92-26.4,50.88-16.11
			c8.86,6.1,13.17,17.05,12.33,28.89c0,0-0.27,3.41-0.59,4.9c-0.31,1.42-1.09,4.48-1.4,5.38C135.51,82.41,135.22,72.05,135.22,72.05
			"/>
		<path class="st5" d="M90.12,66.25c-13.4,14.21-16.43,33.11-6.77,42.22c0.43,0.41,0.88,0.78,1.34,1.13
			c-8.5-8.5-5.95-24.79,5.82-37.5c10.81-11.69,29.21-16.79,38.12-8.4c7.85,7.4,6.8,21.62-1.81,33.63
			c11.93-13.95,14.29-31.61,5.06-40.31C122.21,47.91,103.52,52.04,90.12,66.25"/>
		<path class="st6" d="M102.63,80.73c-9.02,7.84-12.04,19.13-6.74,25.24c4.15,4.78,12.18,4.95,19.79,1.03
			c-6.4,2.95-13.01,2.59-16.53-1.46c-4.7-5.41-2.13-15.35,5.75-22.19c7.88-6.84,18.07-8,22.77-2.59c3.52,4.06,2.96,10.65-0.86,16.58
			c4.94-6.99,5.9-14.96,1.74-19.74C123.26,71.49,111.65,72.89,102.63,80.73"/>
	</g>
</g>
</svg>
